 <svg data-v-74805909="" xmlns="http://www.w3.org/2000/svg" width="18" height="18" viewBox="0 0 16 16" class="svg-icon"><style>.svg-icon{fill:#fff}</style><path data-v-74805909="" d="M15.333 5.874v8.125c0 .736-.597 1.333-1.333 1.333H5.969l9.365-9.459zM5.122 9.357c.306-.306.824-.306 1.129 0s.306.824 0 1.129a.809.809 0 01-1.129 0 .77.77 0 010-1.129zm4.259-4.283c.306-.306.824-.306 1.129 0s.306.824 0 1.129c-.306.306-.824.306-1.129 0s-.306-.8 0-1.129zm-4.189 9.53l9.459-9.459c-1.6-1.6-3.694-2.376-5.929-2.024V1.05C8.698.697 8.51.509 8.157.509s-.518.188-.565.565v2.353A6.37 6.37 0 005.004 4.98a6.144 6.144 0 00-1.576 2.612H1.075c-.353 0-.518.188-.565.565-.024.376.165.565.565.565h2.071c-.376 2.188.424 4.259 2.047 5.882z"></path></svg>
                     