<svg data-v-74805909="" xmlns="http://www.w3.org/2000/svg" width="20" height="20" viewBox="0 0 16 16" class="svg-icon"><style>.svg-icon{fill:#fff}</style><path data-v-74805909="" d="M12.548 10.323c.418.574.895.937 1.452 1.109-.239.708-.616 1.434-1.114 2.18-.795 1.147-1.571 1.721-2.327 1.721-.278 0-.716-.096-1.273-.287-.517-.191-.974-.287-1.372-.287s-.815.096-1.292.287c-.497.191-.895.287-1.213.287-.915 0-1.829-.746-2.724-2.256-.895-1.472-1.352-2.926-1.352-4.379 0-1.339.338-2.409 1.014-3.27.696-.841 1.551-1.262 2.585-1.262.219 0 .477.019.756.076s.557.153.855.306c.318.172.577.287.776.344s.358.096.477.096c.139 0 .338-.038.616-.096s.557-.172.835-.325c.298-.153.557-.268.776-.363.219-.076.437-.115.656-.115.716 0 1.372.191 1.929.555.298.191.616.478.935.88-.477.402-.815.746-1.034 1.033-.398.555-.597 1.147-.597 1.797.02.746.219 1.396.636 1.97zM9.466 3.42c-.358.325-.696.535-.974.631-.099.038-.239.057-.398.076s-.338.038-.537.057c.02-.861.239-1.606.716-2.237S9.466.895 10.54.666c.02.096.04.172.04.21v.153c0 .363-.08.746-.258 1.205-.199.44-.477.822-.855 1.186z"></path></svg> 
                      